<svg width="19" height="20" viewBox="0 0 19 20" fill="none" xmlns="http://www.w3.org/2000/svg">
<path d="M18.5 10.2201C18.5 9.60011 18.44 8.96011 18.34 8.36011H9.68002V11.9001H14.64C14.44 13.0401 13.78 14.0401 12.8 14.6801L15.76 16.9801C17.5 15.3601 18.5 13.0001 18.5 10.2201Z" fill="#4280EF"/>
<path d="M9.68001 19.18C12.16 19.18 14.24 18.36 15.76 16.96L12.8 14.68C11.98 15.24 10.92 15.56 9.68001 15.56C7.28001 15.56 5.26001 13.94 4.52001 11.78L1.48001 14.12C3.04001 17.22 6.20001 19.18 9.68001 19.18Z" fill="#34A353"/>
<path d="M4.52 11.76C4.14 10.62 4.14 9.38 4.52 8.24L1.48 5.88C0.180005 8.48001 0.180005 11.54 1.48 14.12L4.52 11.76Z" fill="#F6B704"/>
<path d="M9.68001 4.46005C10.98 4.44005 12.26 4.94005 13.2 5.84005L15.82 3.20005C14.16 1.64005 11.96 0.800051 9.68001 0.820051C6.20001 0.820051 3.04001 2.78005 1.48001 5.88005L4.52001 8.24005C5.26001 6.06005 7.28001 4.46005 9.68001 4.46005Z" fill="#E54335"/>
</svg>
