<?xml version="1.0" encoding="iso-8859-1"?>
<!-- Generator: Adobe Illustrator 19.0.0, SVG Export Plug-In . SVG Version: 6.00 Build 0)  -->
<svg version="1.1" id="Layer_1" xmlns="http://www.w3.org/2000/svg" xmlns:xlink="http://www.w3.org/1999/xlink" x="0px" y="0px"
	 viewBox="0 0 512 512" style="enable-background:new 0 0 512 512;" xml:space="preserve">
<path style="fill:#211E48;" d="M103.683,423.741c-7.359,0-13.325-5.967-13.325-13.325V53.028C90.359,23.788,114.147,0,143.388,0
	h225.224c29.239,0,53.028,23.788,53.028,53.028v237.615c0,7.358-5.967,13.325-13.325,13.325c-7.358,0-13.325-5.967-13.325-13.325
	V53.028c0-14.545-11.834-26.379-26.379-26.379H143.388c-14.546,0-26.379,11.834-26.379,26.379v357.388
	C117.008,417.774,111.042,423.741,103.683,423.741z"/>
<path style="fill:#B0DACC;" d="M103.683,405.779v53.194c0,21.927,17.776,39.703,39.703,39.703h225.226
	c21.927,0,39.703-17.776,39.703-39.703v-53.194H103.683"/>
<g>
	<path style="fill:#211E48;" d="M368.612,512H143.388c-29.239,0-53.028-23.788-53.028-53.028v-53.193
		c0-7.358,5.965-13.325,13.325-13.325h304.632c7.358,0,13.325,5.967,13.325,13.325v53.193C421.64,488.212,397.852,512,368.612,512z
		 M117.008,419.104v39.868c0,14.545,11.834,26.379,26.379,26.379h225.224c14.545,0,26.379-11.834,26.379-26.379v-39.868H117.008z"/>
	<path style="fill:#211E48;" d="M279.552,465.316h-45.879c-7.359,0-13.325-5.967-13.325-13.325s5.965-13.325,13.325-13.325h45.879
		c7.358,0,13.325,5.967,13.325,13.325S286.91,465.316,279.552,465.316z"/>
	<path style="fill:#211E48;" d="M408.315,436.908c-7.358,0-13.325-5.967-13.325-13.325v-65.43c0-7.358,5.967-13.325,13.325-13.325
		c7.358,0,13.325,5.967,13.325,13.325v65.43C421.64,430.943,415.673,436.908,408.315,436.908z"/>
	<path style="fill:#211E48;" d="M188.28,252.508c0-15.317-40.128-12.658-40.128-42.279c0-18.988,16.582-26.203,32.405-26.203
		c6.709,0,25.19,1.266,25.19,11.138c0,3.418-2.279,10.381-7.848,10.381c-4.557,0-6.963-4.81-17.343-4.81
		c-8.987,0-12.658,3.671-12.658,7.595c0,12.658,40.127,10.253,40.127,42.152c0,18.229-13.291,28.103-31.646,28.103
		c-16.582,0-30.508-8.101-30.508-16.457c0-4.303,3.799-10.632,8.608-10.632c5.951,0,9.747,9.366,21.519,9.366
		C181.824,260.861,188.28,258.582,188.28,252.508z"/>
	<path style="fill:#211E48;" d="M262.329,244.533c-1.644,2.785-4.177,3.671-6.581,3.671c-2.279,0-4.685-0.758-6.203-3.671
		l-12.025-22.026v48.735c0,4.052-4.937,6.077-9.874,6.077c-4.937,0-9.874-2.025-9.874-6.077v-76.584
		c0-7.215,4.937-9.874,9.874-9.874c7.089,0,10.128,0.76,15.317,9.874l13.038,22.786l13.038-22.786
		c5.191-9.114,8.228-9.874,15.317-9.874c5.063,0,9.874,2.658,9.874,9.874v76.584c0,4.052-4.937,6.077-9.874,6.077
		s-9.874-2.025-9.874-6.077v-47.469L262.329,244.533z"/>
	<path style="fill:#211E48;" d="M345.872,252.508c0-15.317-40.128-12.658-40.128-42.279c0-18.988,16.582-26.203,32.405-26.203
		c6.709,0,25.19,1.266,25.19,11.138c0,3.418-2.278,10.381-7.848,10.381c-4.557,0-6.963-4.81-17.343-4.81
		c-8.987,0-12.658,3.671-12.658,7.595c0,12.658,40.127,10.253,40.127,42.152c0,18.229-13.291,28.103-31.646,28.103
		c-16.582,0-30.508-8.101-30.508-16.457c0-4.303,3.799-10.632,8.608-10.632c5.951,0,9.747,9.366,21.519,9.366
		C339.417,260.861,345.872,258.582,345.872,252.508z"/>
</g>
<g>
</g>
<g>
</g>
<g>
</g>
<g>
</g>
<g>
</g>
<g>
</g>
<g>
</g>
<g>
</g>
<g>
</g>
<g>
</g>
<g>
</g>
<g>
</g>
<g>
</g>
<g>
</g>
<g>
</g>
</svg>
